PathFileType  4	(X/Y/Z) C:\Users\antoi\Documents\MyRepositories\mobilecap\ResultsAnalysis
DataRate	CameraRate	NumFrames	NumMarkers	Units	OrigDataRate	OrigDataStartFrame	OrigNumFrames
100.0	100.0	4	51	mm	100.0	1014	1351
Frame#	Time	r_knee			r_shank_antsup			r_ankle			r_calc			r_5meta			r_toe			L_knee			L_shank_antsup			L_ankle			L_calc			L_5meta			L_toe			r_sh2			r_sh3			r_sh4			L_sh2			L_sh3			r_thigh1			r_thigh2			r_thigh3			r_thigh4			r_thigh5			L_thigh1			L_thigh2			L_thigh3			L_thigh4			r.ASIS			r.PSIS			L.ASIS			L.PSIS			C7			R_Shoulder			L_Shoulder			R_Sternum			L_Sternum			R_humerus			R_elbow_med			R_elbow_lat			R_forearm			R_wrist_radius			R_wrist_ulna			L_humerus			L_elbow_med			L_elbow_lat			L_forearm			L_wrist_radius			L_wrist_ulna			R_HJC			L_HJC			R_HJC_reg			L_HJC_reg			
		X1	Y1	Z1	X2	Y2	Z2	X3	Y3	Z3	X4	Y4	Z4	X5	Y5	Z5	X6	Y6	Z6	X7	Y7	Z7	X8	Y8	Z8	X9	Y9	Z9	X10	Y10	Z10	X11	Y11	Z11	X12	Y12	Z12	X13	Y13	Z13	X14	Y14	Z14	X15	Y15	Z15	X16	Y16	Z16	X17	Y17	Z17	X18	Y18	Z18	X19	Y19	Z19	X20	Y20	Z20	X21	Y21	Z21	X22	Y22	Z22	X23	Y23	Z23	X24	Y24	Z24	X25	Y25	Z25	X26	Y26	Z26	X27	Y27	Z27	X28	Y28	Z28	X29	Y29	Z29	X30	Y30	Z30	X31	Y31	Z31	X32	Y32	Z32	X33	Y33	Z33	X34	Y34	Z34	X35	Y35	Z35	X36	Y36	Z36	X37	Y37	Z37	X38	Y38	Z38	X39	Y39	Z39	X40	Y40	Z40	X41	Y41	Z41	X42	Y42	Z42	X43	Y43	Z43	X44	Y44	Z44	X45	Y45	Z45	X46	Y46	Z46	X47	Y47	Z47	X48	Y48	Z48	X49	Y49	Z49	X50	Y50	Z50	X51	Y51	Z51	

1014	10.13000000	-134.10188	519.88893	-391.12802	-103.05813	414.27789	-399.71102	-279.10891	123.31998	-442.49230	-362.79772	77.11050	-502.29939	-187.07779	48.77370	-378.10961	-117.04920	72.22221	-430.37814	-101.44724	539.64656	-826.46518	-119.95323	456.45451	-856.30444	-267.50541	152.16989	-826.92999	-349.10559	107.74938	-761.96131	-186.61726	57.40551	-887.84502	-112.18822	74.70008	-839.76431	-155.86231	314.67775	-384.49014	-161.12504	449.69979	-365.74740	-227.78638	355.14197	-369.95005	-201.48603	489.46701	-835.88881	-235.15169	371.92436	-840.99654	-141.85416	846.99517	-385.20290	-111.20777	743.43358	-382.24998	-156.04329	702.43054	-359.52419	-247.01588	808.99699	-396.48849	-206.04739	702.08020	-385.49317	-93.86012	833.22689	-787.89068	-50.33797	700.53515	-804.75748	-196.92666	802.64412	-812.18348	-159.84951	671.01310	-825.47243	-146.56161	1039.85309	-444.88511	-316.51813	1070.25136	-531.66933	-117.48751	1038.20396	-692.63076	-306.08174	1071.95214	-642.44634	-110.62833	1583.96046	-552.94396	-57.22364	1507.19609	-387.50906	-57.44498	1524.38421	-724.94132	-1.75842	1478.45495	-524.82163	-2.47349	1476.43420	-580.55489	-71.37847	1348.59709	-329.02734	-166.44383	1154.50638	-375.39012	-148.39911	1169.17331	-292.03430	-47.83709	1023.93254	-284.49167	20.37353	957.56341	-298.90085	-20.33284	943.00511	-281.40691	-92.78634	1405.00107	-808.24687	-160.82085	1168.86903	-765.58695	-140.87596	1186.29658	-844.69456	-85.06111	1133.00493	-863.56720	11.69688	982.08274	-862.66007	-24.07510	964.40680	-875.87299	-233.55512	931.54834	-474.08141	-214.87265	937.83510	-680.10115	-207.11553	961.85974	-486.99186	-191.67577	964.37632	-650.88438	
1015	10.14000000	-138.39224	521.97184	-392.80146	-106.73244	416.63399	-400.98335	-279.49041	123.31483	-442.55274	-363.08529	76.93999	-502.23858	-187.10711	48.76682	-378.05568	-117.14291	72.34148	-430.27471	-105.99457	540.51319	-826.63572	-124.28359	457.03733	-856.48587	-268.66190	151.14677	-827.17638	-349.95188	106.05866	-762.09733	-186.90334	57.09337	-888.08431	-112.61855	74.77928	-839.97640	-158.54483	316.34464	-385.18833	-165.32034	451.64371	-367.24712	-231.10916	356.02523	-371.09199	-206.14027	489.33305	-836.09760	-238.65784	371.40311	-841.08147	-141.45150	849.33014	-386.40969	-112.39829	745.47382	-383.40701	-157.95776	704.83964	-361.24878	-247.21872	812.96861	-398.01797	-207.78351	705.34974	-387.42710	-93.42896	834.48248	-789.15741	-52.25439	701.01268	-805.36886	-197.01320	805.64742	-812.94486	-162.28742	673.25788	-825.94013	-144.70251	1043.52454	-446.08529	-314.34694	1073.10037	-533.63266	-114.74996	1041.97215	-694.01263	-303.73109	1075.15267	-644.36164	-112.84550	1588.43865	-554.98436	-59.62553	1512.36654	-389.15511	-59.03750	1529.24031	-726.55723	-3.44754	1483.73210	-526.32653	-3.96896	1481.67052	-582.09403	-73.65155	1353.52474	-330.90305	-168.31264	1159.56020	-378.17135	-151.00074	1174.00325	-294.70331	-52.64605	1027.28390	-286.26997	14.35959	959.70941	-300.05335	-26.52205	945.94133	-282.74761	-94.03708	1409.09027	-809.03120	-161.75289	1173.45966	-765.83060	-142.02387	1190.43417	-845.09833	-87.06166	1136.32922	-864.22242	6.54639	983.40693	-863.70720	-29.62781	966.29959	-876.32802	-231.14666	934.83919	-475.77855	-211.79260	941.27034	-681.73183	-204.51554	964.83205	-488.52544	-188.78817	967.87312	-652.57036	
1016	10.15000000	-142.73142	523.92429	-394.59006	-110.53312	418.82891	-402.19230	-279.95546	123.31908	-442.61964	-363.16372	76.65064	-502.06474	-187.15824	48.75030	-378.05434	-117.21929	72.44264	-430.21502	-110.60355	541.23037	-826.48387	-128.67240	457.69019	-856.67588	-269.80238	150.12220	-827.43129	-350.71342	104.36444	-762.30265	-187.22603	56.70043	-888.30251	-113.02927	74.91037	-840.15043	-161.34708	318.11547	-385.93932	-169.64450	453.31388	-369.00586	-234.24202	357.24259	-372.32204	-210.82045	489.22802	-836.21653	-242.13386	370.93812	-841.29405	-141.03264	851.46040	-387.64796	-113.66295	747.32302	-384.90691	-159.89331	707.16047	-363.06682	-247.29213	816.50097	-400.23801	-209.58996	708.65027	-389.15124	-93.00931	835.66257	-790.32783	-54.30754	701.39897	-806.11419	-197.17056	808.50832	-813.57898	-164.76677	675.50522	-826.46231	-142.85571	1047.06328	-447.29817	-312.19310	1075.91599	-535.54451	-112.55259	1045.26436	-695.24928	-301.38468	1078.14090	-646.19276	-115.13620	1592.78315	-556.91252	-62.08641	1517.12483	-390.90201	-60.68439	1533.81715	-728.10545	-5.18531	1488.83550	-527.79834	-5.54247	1486.81829	-583.82734	-75.83694	1358.22676	-332.65283	-170.15926	1164.53156	-380.78471	-153.52918	1178.59385	-297.37520	-57.45435	1030.59117	-288.00530	8.45218	961.80112	-301.20917	-32.79021	948.93466	-283.77851	-95.12515	1413.19564	-810.35606	-162.83974	1177.91768	-766.05849	-143.13433	1194.38184	-845.47442	-88.92954	1139.55399	-864.92708	1.48884	984.65566	-864.71951	-35.01939	968.28638	-877.23638	-228.95209	938.07739	-477.22576	-209.11379	944.34113	-683.13837	-202.23019	967.77940	-489.94933	-186.20472	971.07818	-654.00469	
1017	10.16000000	-147.03279	525.73337	-396.43923	-114.31473	421.01592	-403.25395	-280.41726	123.38259	-442.53717	-363.06644	76.29291	-501.88901	-187.23139	48.71172	-378.05876	-117.29656	72.53139	-430.16234	-115.29046	542.06051	-826.45310	-133.07009	458.37296	-856.86230	-270.88267	149.10367	-827.62566	-351.37388	102.79893	-762.45632	-187.56701	56.27898	-888.47685	-113.45955	75.03595	-840.13684	-164.15792	320.00580	-386.78328	-173.89182	454.82924	-370.75298	-237.68887	358.49945	-373.15429	-215.52304	489.08562	-836.29665	-245.72129	370.55724	-841.42652	-140.68789	853.49464	-388.87212	-114.91640	748.85694	-386.49558	-161.81471	709.38848	-364.84237	-247.26644	819.77375	-402.87556	-211.44156	711.81557	-390.86050	-92.56810	836.72473	-791.39400	-56.43697	701.66822	-807.00594	-197.36626	811.34637	-814.27232	-167.34384	677.65264	-826.74168	-140.97924	1050.52363	-448.55662	-310.13873	1078.74069	-537.30003	-110.82845	1048.08303	-696.37180	-299.03199	1080.92950	-647.91294	-117.47591	1596.89968	-558.90080	-64.53504	1521.56277	-392.57760	-62.28560	1538.16814	-729.63952	-6.94562	1493.76706	-529.25990	-7.20810	1491.83454	-585.65347	-78.08643	1362.74388	-334.31671	-171.97266	1169.32878	-383.27290	-156.01083	1183.10173	-299.87714	-62.27428	1033.80335	-289.56759	2.57715	963.80117	-302.33710	-39.24048	952.08055	-284.23030	-96.12956	1417.15489	-811.92084	-163.75783	1182.17253	-766.39101	-144.15335	1198.12828	-845.86144	-90.79913	1142.63362	-865.57963	-3.40587	985.86333	-865.68227	-40.34260	970.25276	-878.30368	-226.93761	941.30638	-478.38527	-206.83812	947.05961	-684.28758	-200.28495	970.75168	-491.33224	-183.82712	973.99503	-655.24748	
